<svg id="圖層_1" data-name="圖層 1" xmlns="http://www.w3.org/2000/svg" viewBox="0 0 1104 316"><defs><style>.cls-1,.cls-2,.cls-3{fill:#fff;}.cls-2{font-size:166px;font-family:NotoSansTC-Thin-90ms-RKSJ-H, Noto Sans TC;}.cls-3{font-size:54px;font-family:NotoSans-Light, Noto Sans;}.cls-4{letter-spacing:-0.01em;}.cls-5{letter-spacing:0em;}</style></defs><title>logoWhiteTest</title><path class="cls-1" d="M45.73,218.7c8.64,6.05,17,12.52,26,18.09C89,247.35,108.32,251.66,128.38,253c26.32,1.79,51.87-.61,77.43-2.74,23.72-2,47.54-3,71.91-.41,26.59,2.83,52.07,9.18,75.11,22.93A85.11,85.11,0,0,1,372,288c-1.14,0-1.7.23-2,.06-22.36-11.1-46.31-15.48-70.75-17.36-31.14-2.4-61.23.26-91.06,4.33-27.82,3.8-56.23,3.43-84.67-4.47-30.69-8.52-55.81-24-74-47.13-1.23-1.57-2.51-3.12-3.75-4.68C45.65,218.6,45.73,218.41,45.73,218.7Z"/><path class="cls-1" d="M321.67,46.86c-12-4.83-23.58-10.76-35.83-14.12-42.14-11.54-81.05-3.53-115.3,23.34C146.52,74.94,132,100,127,130.59c-5.49,33.73,3.41,63.47,23.39,90.46,1.67,2.26,3.68,4.29,5.19,6.74-8.19-4.89-14.52-11.75-20.4-19.08-20.53-25.61-29.67-55-26.11-87.44,3.84-35,20.88-63.26,49.34-84C206.59,2.18,272.55,5,318,43.45,319.35,44.57,320.56,45.82,321.67,46.86Z"/><path class="cls-1" d="M117,283.74c20.52,3.28,40.32,3.38,59.83,2.05,22.76-1.54,45.34-3.68,68.05-5.37,33.52-2.5,67.26-.69,101.21,10.41,7.72,2.52,15.15,5.83,22.71,8.77l-.39,1.06c-7.25-1.3-14.5-2.71-21.76-3.89-28.16-4.56-55.79-5-83.06-3.34-21.14,1.3-42,3.5-63.29,4.25a212.52,212.52,0,0,1-69.86-9.36C125.92,286.95,121.49,285.28,117,283.74Z"/><path class="cls-1" d="M256,227.24c-28.43,13.87-56.9,14.54-84-2.53-31.63-19.93-43.56-50.06-40-86.49,3-30.26,27.49-62.42,52.91-70.9C147.16,100,134.23,139,156.58,185.73c8.68,18.15,23.45,30.67,42.31,38.47S236.68,231.7,256,227.24Z"/><path class="cls-1" d="M249.18,93.16c-36.92-.11-63.72,15-75.75,51.25-4.89,14.72-3.66,29.75,2.56,44.14a63.71,63.71,0,0,0,29.49,31.94c-30-7.26-56.27-41.26-43.73-82C174.06,98.54,218.3,81.72,249.18,93.16Z"/><path class="cls-1" d="M321.58,144.06c-1.06-6.17-2-11.29-2.72-16.51-.07-.49,1.49-2.31,2.14-2.46a19.49,19.49,0,0,1,4.59-.12c8.65-17.31,9.76-32.38,4.92-45.61-1.62-4.42-1.69-8.74.91-14.2.61-1.27,1-2.58,1.53-4.15h-17.1c-.18.19-.53.42-.57.61-1.84,8.14-7.17,14.53-14,21-8.81,8.28-16,17.79-20.4,28.44-.83,2-1.93,4.26-4.37,3.93s-1.57-2.68-.61-4.84a95.75,95.75,0,0,1,22.43-30.92c6.31-5.91,10.18-11.82,12.25-19,1.38-4.8,1.93-5,6.53-5,6.44,0,12.85.07,19.33,0,2.76,0,3.91,1,2.39,4.06C335,67,334.86,73.51,337,80c3.73,11.51,2.66,24.76-3.45,39.26-.6,1.43-1,2.87-1.54,4.3a7.73,7.73,0,0,0-.19,1,5.28,5.28,0,0,0,1.39.44c5.47.39,5.56.54.92,5.72C330.29,135,326.3,139,321.58,144.06Z"/><path class="cls-1" d="M269.19,135.95l-6.55-.83,17.23-20.82,2.41,20.6L274.56,136l-4.35,11.95c-4.61,12.7-9.06,25.41-13.91,38.1-2.31,6-2.33,10.63,0,14.33.88,1.37,2,2.86-.42,5.3s-3.75,1-4.65-.52c-2.74-4.73-3.37-10.39-.53-18,6.16-16.44,12-32.88,18-49.32A15.05,15.05,0,0,0,269.19,135.95Z"/><path class="cls-1" d="M284.36,193.61l-1.77,7.87c7.46,2.16,19.48-5.7,22.25-14.57C308,176.76,311,166.62,314,156.47c.41-1.35.54-2.85,1.34-4A22.83,22.83,0,0,1,319,149c.65,1.17,2.11,2.28,1.82,3.51-1.25,5.25-3,10.54-4.59,15.82q-2.55,8.52-5.12,17c-3.65,12.1-16.07,22.11-28,22.55-.77,0-1.57.14-2.51.23l-2.87,7.52a36.84,36.84,0,0,1-3.86-2c-3.11-2.17-6.14-4.45-9.21-6.67-1.29-.93-2.22-2.18.37-3.56C271.08,200.21,277.2,197.24,284.36,193.61Z"/><text class="cls-2" transform="translate(382.83 196.48)">淨下塑湲</text><text class="cls-3" transform="translate(385.08 271.13)">G<tspan class="cls-4" x="39.1" y="0">U</tspan><tspan class="cls-5" x="77.54" y="0">ARDIAN OF THE OCEAN</tspan></text></svg>